<svg xmlns="http://www.w3.org/2000/svg" viewBox="0 0 133.968 123.502">
  <defs>
    <style>
      .cls-1 {
        fill: #3c58df;
      }
    </style>
  </defs>
  <g id="high-five_1_" data-name="high-five (1)" transform="translate(0 -20)">
    <g id="Group_3" data-name="Group 3" transform="translate(64.364 20)">
      <g id="Group_2" data-name="Group 2">
        <path id="Path_11" data-name="Path 11" class="cls-1" d="M248.6,20a2.617,2.617,0,0,0-2.617,2.617V38.183a2.617,2.617,0,0,0,5.233,0V22.617A2.617,2.617,0,0,0,248.6,20Z" transform="translate(-245.987 -20)"/>
      </g>
    </g>
    <g id="Group_5" data-name="Group 5" transform="translate(41.428 35.32)">
      <g id="Group_4" data-name="Group 4" transform="translate(0 0)">
        <path id="Path_12" data-name="Path 12" class="cls-1" d="M169.056,85.57l-6.26-6.255a2.617,2.617,0,1,0-3.7,3.7l6.261,6.255a2.617,2.617,0,0,0,3.7-3.7Z" transform="translate(-158.33 -78.55)"/>
      </g>
    </g>
    <g id="Group_7" data-name="Group 7" transform="translate(80.651 35.326)">
      <g id="Group_6" data-name="Group 6">
        <path id="Path_13" data-name="Path 13" class="cls-1" d="M319.354,79.339a2.617,2.617,0,0,0-3.7,0L309,86a2.617,2.617,0,0,0,3.7,3.7l6.656-6.661A2.617,2.617,0,0,0,319.354,79.339Z" transform="translate(-308.233 -78.573)"/>
      </g>
    </g>
    <g id="Group_9" data-name="Group 9" transform="translate(0 59.315)">
      <g id="Group_8" data-name="Group 8" transform="translate(0 0)">
        <path id="Path_14" data-name="Path 14" class="cls-1" d="M116.83,200.015h-2.112a13.259,13.259,0,0,0,2.751-8.1v-3.693a13.33,13.33,0,1,0-26.659,0V191.1L71.125,171.411a3.944,3.944,0,0,0-4.141-.922,3.945,3.945,0,0,0-4.141.922L43.159,191.1v-2.871a13.33,13.33,0,0,0-26.66,0v3.693a13.259,13.259,0,0,0,2.751,8.1H17.139A17.158,17.158,0,0,0,0,217.154v34.67a2.617,2.617,0,0,0,2.617,2.617H13.672a2.616,2.616,0,0,0,.752-.111,2.616,2.616,0,0,0,.752.111H44.482a2.617,2.617,0,0,0,2.617-2.617v-8.9a2.617,2.617,0,1,0-5.233,0v6.28H17.793V219.392a2.617,2.617,0,0,0-5.233,0v29.815H5.233V217.154a11.919,11.919,0,0,1,11.905-11.905H35.324a2.609,2.609,0,0,0,1.845-.762l.005,0L64.352,177.3A28.812,28.812,0,0,1,59.436,192.5L42.311,217.93a2.618,2.618,0,0,0-.446,1.461v2.864a2.617,2.617,0,0,0,5.233,0V220.19l16.679-24.77a34.247,34.247,0,0,0,3.207-5.968,34.229,34.229,0,0,0,3.207,5.968L86.87,220.19v31.633a2.617,2.617,0,0,0,2.617,2.617h29.306a2.616,2.616,0,0,0,.752-.111,2.616,2.616,0,0,0,.752.111h11.055a2.617,2.617,0,0,0,2.617-2.617v-34.67A17.158,17.158,0,0,0,116.83,200.015Zm-78.9-8.1a8.1,8.1,0,1,1-16.193,0v-3.693a8.1,8.1,0,1,1,16.193,0Zm58.118-3.693a8.1,8.1,0,1,1,16.193,0v3.693a8.1,8.1,0,1,1-16.193,0Zm32.692,60.981h-7.326V229.844a2.617,2.617,0,1,0-5.233,0v19.363H92.1V219.392a2.617,2.617,0,0,0-.446-1.461L74.532,192.5A28.812,28.812,0,0,1,69.616,177.3l27.178,27.178c.035.035.067.064.1.089a2.6,2.6,0,0,0,1.752.677H116.83a11.919,11.919,0,0,1,11.905,11.905Z" transform="translate(0 -170.252)"/>
      </g>
    </g>
    <g id="Group_11" data-name="Group 11" transform="translate(116.176 105.837)">
      <g id="Group_10" data-name="Group 10">
        <path id="Path_15" data-name="Path 15" class="cls-1" d="M448.466,348.817a2.615,2.615,0,1,0,.767,1.85A2.635,2.635,0,0,0,448.466,348.817Z" transform="translate(-444 -348.05)"/>
      </g>
    </g>
    <g id="Group_13" data-name="Group 13" transform="translate(41.865 119.691)">
      <g id="Group_12" data-name="Group 12">
        <path id="Path_16" data-name="Path 16" class="cls-1" d="M164.466,401.767a2.615,2.615,0,1,0,.767,1.85A2.635,2.635,0,0,0,164.466,401.767Z" transform="translate(-160 -401)"/>
      </g>
    </g>
  </g>
</svg>
