<svg xmlns="http://www.w3.org/2000/svg" viewBox="0 0 143.292 143.291">
  <defs>
    <style>
      .cls-1 {
        fill: #ffb782;
      }

      .cls-2 {
        fill: #de4c3c;
      }

      .cls-3 {
        fill: #7a4930;
      }

      .cls-4 {
        fill: #4398d1;
      }

      .cls-5 {
        fill: #3e8cc7;
      }

      .cls-6 {
        fill: #5eb3d1;
      }

      .cls-7 {
        fill: #88b337;
      }

      .cls-8 {
        fill: #6b962a;
      }

      .cls-9 {
        fill: #fdb62f;
      }

      .cls-10 {
        fill: #fd7b2f;
      }

      .cls-11 {
        fill: #f2a46f;
      }
    </style>
  </defs>
  <g id="debit-card" transform="translate(0.001 -0.301)">
    <path id="Path_21" data-name="Path 21" class="cls-1" d="M474.949,87.437,449.105,61.543V165.306h34.587V108.46A29.651,29.651,0,0,0,474.949,87.437Zm0,0" transform="translate(-340.401 -46.419)"/>
    <path id="Path_22" data-name="Path 22" class="cls-2" d="M20.2,99.985.663,49.265a9.881,9.881,0,0,1,5.67-12.773L98.551.971a9.88,9.88,0,0,1,12.772,5.67l19.538,50.72a9.881,9.881,0,0,1-5.67,12.773L32.975,105.656A9.885,9.885,0,0,1,20.2,99.985Zm0,0" transform="translate(0 -0.006)"/>
    <path id="Path_23" data-name="Path 23" class="cls-3" d="M142.767,101.961,32.2,144.82l7.363,19.112,110.576-42.839Zm0,0" transform="translate(-24.403 -77.054)"/>
    <path id="Path_24" data-name="Path 24" class="cls-4" d="M0,64.535V10.183A9.883,9.883,0,0,1,9.886.3h98.821a9.883,9.883,0,0,1,9.883,9.882V64.535a9.883,9.883,0,0,1-9.883,9.882H9.886A9.883,9.883,0,0,1,0,64.535Zm0,0" transform="translate(-0.003)"/>
    <path id="Path_25" data-name="Path 25" class="cls-5" d="M184.136.3h-10.5L99.52,74.417h84.616a9.883,9.883,0,0,0,9.883-9.882V10.183A9.883,9.883,0,0,0,184.136.3Zm0,0" transform="translate(-75.431)"/>
    <path id="Path_26" data-name="Path 26" class="cls-6" d="M40.832,163.609h9.882v4.941H40.832Zm0,0" transform="translate(-30.949 -123.78)"/>
    <path id="Path_27" data-name="Path 27" class="cls-6" d="M40.832,224.852h9.882v4.941H40.832Zm0,0" transform="translate(-30.949 -170.199)"/>
    <path id="Path_28" data-name="Path 28" class="cls-6" d="M224.555,224.852h9.882v4.941h-9.882Zm0,0" transform="translate(-170.202 -170.199)"/>
    <path id="Path_29" data-name="Path 29" class="cls-6" d="M102.074,163.609h9.881v4.941h-9.881Zm0,0" transform="translate(-77.368 -123.78)"/>
    <path id="Path_30" data-name="Path 30" class="cls-6" d="M163.313,163.609H173.2v4.941h-9.882Zm0,0" transform="translate(-123.784 -123.78)"/>
    <path id="Path_31" data-name="Path 31" class="cls-6" d="M224.555,163.609h9.882v4.941h-9.882Zm0,0" transform="translate(-170.202 -123.78)"/>
    <path id="Path_32" data-name="Path 32" class="cls-6" d="M418.484,41.129h4.941v7.412h-4.941Zm0,0" transform="translate(-317.191 -30.946)"/>
    <path id="Path_33" data-name="Path 33" class="cls-6" d="M377.656,41.129H382.6v7.412h-4.941Zm0,0" transform="translate(-286.246 -30.946)"/>
    <path id="Path_34" data-name="Path 34" class="cls-6" d="M336.828,41.129h4.941v7.412h-4.941Zm0,0" transform="translate(-255.3 -30.946)"/>
    <path id="Path_35" data-name="Path 35" class="cls-6" d="M296,41.129h4.94v7.412H296Zm0,0" transform="translate(-224.357 -30.946)"/>
    <path id="Path_36" data-name="Path 36" class="cls-7" d="M408.277,490.23h44.47v24.705h-44.47Zm0,0" transform="translate(-309.455 -371.343)"/>
    <path id="Path_37" data-name="Path 37" class="cls-1" d="M321.11,174.907a10.71,10.71,0,0,0-15.465,14.811L325.891,211.8a33.319,33.319,0,0,0,.674,34.184l1.8,2.873h32.117V214.275Zm0,0" transform="translate(-229.539 -129.976)"/>
    <path id="Path_38" data-name="Path 38" class="cls-8" d="M438.9,520.852h4.941v4.941H438.9Zm0,0" transform="translate(-332.664 -394.553)"/>
    <path id="Path_39" data-name="Path 39" class="cls-9" d="M40.832,56.94V45.082a3.952,3.952,0,0,1,3.953-3.953H56.644A3.951,3.951,0,0,1,60.6,45.082V56.94a3.951,3.951,0,0,1-3.952,3.953H44.785A3.952,3.952,0,0,1,40.832,56.94Zm0,0" transform="translate(-30.949 -30.946)"/>
    <path id="Path_40" data-name="Path 40" class="cls-10" d="M40.832,71.75h7.412v4.941H40.832Zm0,0" transform="translate(-30.949 -54.155)"/>
    <path id="Path_41" data-name="Path 41" class="cls-10" d="M91.867,71.75h7.411v4.941H91.867Zm0,0" transform="translate(-69.631 -54.155)"/>
    <path id="Path_42" data-name="Path 42" class="cls-11" d="M492.172,301.013a2.466,2.466,0,0,1-1.746-.724l-9.882-9.882a2.471,2.471,0,0,1,3.494-3.494l9.883,9.882a2.471,2.471,0,0,1-1.747,4.218Zm0,0" transform="translate(-363.704 -216.713)"/>
  </g>
</svg>
